<svg xmlns="http://www.w3.org/2000/svg" xmlns:xlink="http://www.w3.org/1999/xlink" version="1.1" x="0px" y="0px" viewBox="0 0 100 100" xml:space="preserve"><path d="M68,42H58V32c0-1.1-0.9-2-2-2H44c-1.1,0-2,0.9-2,2v10H32c-1.1,0-2,0.9-2,2v12c0,1.1,0.9,2,2,2h10v10c0,1.1,0.9,2,2,2h12  c1.1,0,2-0.9,2-2V58h10c1.1,0,2-0.9,2-2V44C70,42.9,69.1,42,68,42z M66,54H56c-1.1,0-2,0.9-2,2v10h-8V56c0-1.1-0.9-2-2-2H34v-8h10  c1.1,0,2-0.9,2-2V34h8v10c0,1.1,0.9,2,2,2h10V54z M87,32H68V13c0-4.4-3.6-8-8-8H40c-4.4,0-8,3.6-8,8v19H13c-4.4,0-8,3.6-8,8v20  c0,4.4,3.6,8,8,8h19v19c0,4.4,3.6,8,8,8h20c4.4,0,8-3.6,8-8V68h19c4.4,0,8-3.6,8-8V40C95,35.6,91.4,32,87,32z M91,60  c0,2.2-1.8,4-4,4H66c-1.1,0-2,0.9-2,2v21c0,2.2-1.8,4-4,4H40c-2.2,0-4-1.8-4-4V66c0-1.1-0.9-2-2-2H13c-2.2,0-4-1.8-4-4V40  c0-2.2,1.8-4,4-4h21c1.1,0,2-0.9,2-2V13c0-2.2,1.8-4,4-4h20c2.2,0,4,1.8,4,4v21c0,1.1,0.9,2,2,2h21c2.2,0,4,1.8,4,4V60z M8,17  c0-1.1,0.9-2,2-2h5v-5c0-1.1,0.9-2,2-2s2,0.9,2,2v5h5c1.1,0,2,0.9,2,2s-0.9,2-2,2h-5v5c0,1.1-0.9,2-2,2s-2-0.9-2-2v-5h-5  C8.9,19,8,18.1,8,17z M74,17c0-1.1,0.9-2,2-2h5v-5c0-1.1,0.9-2,2-2s2,0.9,2,2v5h5c1.1,0,2,0.9,2,2s-0.9,2-2,2h-5v5c0,1.1-0.9,2-2,2  s-2-0.9-2-2v-5h-5C74.9,19,74,18.1,74,17z M26,83c0,1.1-0.9,2-2,2h-5v5c0,1.1-0.9,2-2,2s-2-0.9-2-2v-5h-5c-1.1,0-2-0.9-2-2  s0.9-2,2-2h5v-5c0-1.1,0.9-2,2-2s2,0.9,2,2v5h5C25.1,81,26,81.9,26,83z M92,83c0,1.1-0.9,2-2,2h-5v5c0,1.1-0.9,2-2,2s-2-0.9-2-2v-5  h-5c-1.1,0-2-0.9-2-2s0.9-2,2-2h5v-5c0-1.1,0.9-2,2-2s2,0.9,2,2v5h5C91.1,81,92,81.9,92,83z"></path></svg>